<mxfile host="65bd71144e">
    <diagram id="SptBaxmsx4VKbgYZ2mvU" name="Page-1">
        <mxGraphModel dx="574" dy="321" grid="1" gridSize="10" guides="1" tooltips="1" connect="1" arrows="1" fold="1" page="1" pageScale="1" pageWidth="850" pageHeight="1100" math="0" shadow="0">
            <root>
                <mxCell id="0"/>
                <mxCell id="1" parent="0"/>
                <mxCell id="5" style="edgeStyle=none;html=1;entryX=0.234;entryY=-0.038;entryDx=0;entryDy=0;entryPerimeter=0;" edge="1" parent="1" source="2" target="4">
                    <mxGeometry relative="1" as="geometry">
                        <mxPoint x="310" y="260" as="targetPoint"/>
                        <Array as="points">
                            <mxPoint x="242" y="140"/>
                            <mxPoint x="305" y="140"/>
                        </Array>
                    </mxGeometry>
                </mxCell>
                <mxCell id="2" value="variableModule.js" style="aspect=fixed;html=1;points=[];align=center;image;fontSize=12;image=img/lib/azure2/general/Code.svg;labelPosition=center;verticalLabelPosition=top;verticalAlign=bottom;" vertex="1" parent="1">
                    <mxGeometry x="210" y="60" width="64" height="52" as="geometry"/>
                </mxCell>
                <mxCell id="6" style="edgeStyle=none;html=1;entryX=0.766;entryY=-0.038;entryDx=0;entryDy=0;entryPerimeter=0;" edge="1" parent="1" source="3" target="4">
                    <mxGeometry relative="1" as="geometry">
                        <mxPoint x="310" y="250" as="targetPoint"/>
                        <Array as="points">
                            <mxPoint x="400" y="140"/>
                            <mxPoint x="340" y="140"/>
                        </Array>
                    </mxGeometry>
                </mxCell>
                <mxCell id="3" value="functionModule.js" style="aspect=fixed;html=1;points=[];align=center;image;fontSize=12;image=img/lib/azure2/general/Code.svg;labelPosition=center;verticalLabelPosition=top;verticalAlign=bottom;" vertex="1" parent="1">
                    <mxGeometry x="370" y="60" width="64" height="52" as="geometry"/>
                </mxCell>
                <mxCell id="4" value="app.js" style="aspect=fixed;html=1;points=[];align=center;image;fontSize=12;image=img/lib/azure2/general/Code.svg;" vertex="1" parent="1">
                    <mxGeometry x="290" y="180" width="64" height="52" as="geometry"/>
                </mxCell>
            </root>
        </mxGraphModel>
    </diagram>
</mxfile>